<?xml version="1.0" encoding="iso-8859-1"?>
<!-- Generator: Adobe Illustrator 19.0.0, SVG Export Plug-In . SVG Version: 6.00 Build 0)  -->
<svg version="1.1" id="Layer_1" xmlns="http://www.w3.org/2000/svg" xmlns:xlink="http://www.w3.org/1999/xlink" x="0px" y="0px"
	 viewBox="0 0 512 512" style="enable-background:new 0 0 512 512;" xml:space="preserve">
<g>
	<g>
		<path d="M404.816,308.113c-1.686-1.797-3.392-3.579-5.143-5.329c-29.761-29.762-66.236-50.37-106.007-60.423
			c42.048-20.964,71.004-64.411,71.004-114.5C364.669,57.358,307.311,0,236.809,0S108.948,57.358,108.948,127.86
			c0,50.089,28.957,93.536,71.004,114.5c-39.771,10.053-76.245,30.661-106.007,60.423c-43.502,43.502-67.46,101.341-67.46,162.864
			c0,5.633,4.566,10.199,10.199,10.199h309.072C344.472,497.944,372.406,512,403.564,512c56.216,0,101.951-45.735,101.951-101.951
			C505.515,354.251,460.456,308.787,404.816,308.113z M129.346,127.86c0-59.254,48.208-107.462,107.463-107.462
			c59.255,0,107.462,48.208,107.462,107.462c0,59.254-48.208,107.463-107.462,107.463
			C177.555,235.323,129.346,187.116,129.346,127.86z M27.128,455.448c5.338-111.036,97.347-199.727,209.681-199.727
			c54.693,0,104.553,21.041,141.951,55.433c-44.268,11.107-77.147,51.231-77.147,98.895c0,16.302,3.852,31.72,10.686,45.4H27.128z
			 M403.564,491.602c-44.968,0-81.553-36.585-81.553-81.553c0-44.968,36.585-81.553,81.553-81.553
			c44.968,0,81.553,36.585,81.553,81.553C485.117,455.017,448.532,491.602,403.564,491.602z"/>
	</g>
</g>
<g>
	<g>
		<path d="M152.415,304.162c-2.889-4.836-9.153-6.413-13.986-3.525c-44.198,26.405-76.417,70.134-88.393,119.975
			c-1.316,5.478,2.057,10.984,7.534,12.3c0.801,0.193,1.602,0.285,2.392,0.285c4.606,0,8.785-3.142,9.908-7.819
			c10.703-44.538,39.505-83.622,79.021-107.23C153.725,315.259,155.304,308.997,152.415,304.162z"/>
	</g>
</g>
<g>
	<g>
		<path d="M236.808,273.563c-15.038,0-30.016,1.745-44.517,5.187c-5.48,1.3-8.868,6.798-7.568,12.279
			c1.113,4.689,5.296,7.846,9.915,7.846c0.78,0,1.572-0.09,2.363-0.278c12.961-3.076,26.354-4.636,39.807-4.636
			c5.633,0,10.199-4.566,10.199-10.199C247.007,278.129,242.441,273.563,236.808,273.563z"/>
	</g>
</g>
<g>
	<g>
		<path d="M445.608,401.697h-83.792c-5.633,0-10.199,4.566-10.199,10.199c0,5.633,4.566,10.199,10.199,10.199h83.792
			c5.633,0,10.199-4.566,10.199-10.199C455.807,406.263,451.241,401.697,445.608,401.697z"/>
	</g>
</g>
<g>
</g>
<g>
</g>
<g>
</g>
<g>
</g>
<g>
</g>
<g>
</g>
<g>
</g>
<g>
</g>
<g>
</g>
<g>
</g>
<g>
</g>
<g>
</g>
<g>
</g>
<g>
</g>
<g>
</g>
</svg>
