<?xml version="1.0" encoding="iso-8859-1"?>
<!-- Generator: Adobe Illustrator 19.0.0, SVG Export Plug-In . SVG Version: 6.00 Build 0)  -->
<svg fill="#45a69a" version="1.1" id="Capa_1" xmlns="http://www.w3.org/2000/svg" xmlns:xlink="http://www.w3.org/1999/xlink" x="0px" y="0px"
	 viewBox="0 0 508 508" style="enable-background:new 0 0 508 508;" xml:space="preserve">
<g>
	<g>
		<path d="M317.8,68c6.3-7.2,10.2-16.5,10.2-26.7c0-22.6-18.4-40.9-40.9-40.9c-22.6,0-40.9,18.4-40.9,40.9
			c0,10.3,3.9,19.5,10.2,26.7c-62.8,8.7-119.1,44-154.5,98.2l13.7,8.9c36.5-55.9,97-90.1,163.3-92.7v24.3h16.4V82.4
			c106.3,4.2,191.9,89.9,196.1,196.1h-24.3v16.4h24.3c-4.2,106.3-89.9,191.9-196.1,196.1v-24.3h-16.4V491
			C172.6,486.8,87,401.2,82.8,294.9h82.4L82.6,192.7L0,294.9h66.4c4.3,118,101.6,212.7,220.7,212.7c121.8,0,220.9-99.1,220.9-220.9
			C508,175.4,425.1,83,317.8,68z M287.1,65.8c-13.5,0-24.5-11-24.5-24.5s11-24.5,24.5-24.5s24.5,11,24.5,24.5S300.6,65.8,287.1,65.8
			z M34.3,278.6l48.3-59.8l48.3,59.8H34.3z"/>
	</g>
</g>
<g>
	<g>
		<path d="M295.4,246.6V130.9H279v115.8c-18.6,3.8-32.7,20.3-32.7,40.1c0,12.2,5.4,23,13.9,30.5l-45.6,79l14.1,8l45.6-79
			c4.1,1.4,8.3,2.3,12.9,2.3c22.6,0,40.9-18.4,40.9-40.9C328.1,266.9,314,250.4,295.4,246.6z M287.1,311.2
			c-13.5,0-24.5-11-24.5-24.5s11-24.5,24.5-24.5s24.5,11,24.5,24.5S300.6,311.2,287.1,311.2z"/>
	</g>
</g>
<g>
</g>
<g>
</g>
<g>
</g>
<g>
</g>
<g>
</g>
<g>
</g>
<g>
</g>
<g>
</g>
<g>
</g>
<g>
</g>
<g>
</g>
<g>
</g>
<g>
</g>
<g>
</g>
<g>
</g>
</svg>
