<svg width="33" height="33" viewBox="0 0 33 33" fill="none" xmlns="http://www.w3.org/2000/svg">
<path d="M3.45487 16.6317C4.62831 15.462 6.52781 15.4651 7.69751 16.6385L16.9226 25.8931C18.0923 27.0665 18.0893 28.966 16.9158 30.1357L14.9578 32.0875C13.7844 33.2572 11.8849 33.2541 10.7152 32.0807L1.49011 22.8261C0.320403 21.6527 0.323434 19.7532 1.49687 18.5835L3.45487 16.6317Z" fill="white"/>
<path d="M18.2942 1.7726C19.4677 0.602897 21.3672 0.605926 22.5369 1.77937L31.764 11.036C32.9337 12.2094 32.9307 14.1089 31.7572 15.2786L29.8025 17.2271C28.6291 18.3968 26.7296 18.3938 25.5599 17.2203L16.3327 7.96373C15.163 6.79029 15.1661 4.8908 16.3395 3.7211L18.2942 1.7726Z" fill="white"/>
<path d="M11.9314 19.4559C11.1516 18.6736 11.1536 17.4073 11.9359 16.6275L16.1853 12.3916C16.9676 11.6118 18.2339 11.6138 19.0137 12.3961L21.1317 14.5208C21.9115 15.3031 21.9095 16.5694 21.1272 17.3492L16.8778 21.5851C16.0955 22.3649 14.8291 22.3629 14.0493 21.5806L11.9314 19.4559Z" fill="white"/>
<path d="M1.8334 24.0313C2.73704 23.1305 4.1998 23.1329 5.10056 24.0365L9.30815 28.2576C10.2089 29.1612 10.2066 30.624 9.30294 31.5247C8.3993 32.4255 6.93654 32.4231 6.03578 31.5195L1.82819 27.2985C0.927424 26.3948 0.929755 24.9321 1.8334 24.0313Z" fill="white"/>
<path d="M23.7537 2.111C24.6573 1.21024 26.1201 1.21257 27.0209 2.11621L31.2285 6.33724C32.1292 7.24089 32.1269 8.70365 31.2233 9.60441C30.3196 10.5052 28.8569 10.5028 27.9561 9.5992L23.7485 5.37816C22.8477 4.47452 22.8501 3.01176 23.7537 2.111Z" fill="white"/>
</svg>
