<?xml version="1.0" encoding="utf-8"?><svg version="1.1" id="Layer_1" xmlns="http://www.w3.org/2000/svg" xmlns:xlink="http://www.w3.org/1999/xlink" x="0px" y="0px" viewBox="0 0 122.88 62.85" style="enable-background:new 0 0 122.88 62.85" xml:space="preserve"><style type="text/css">.st0{fill-rule:evenodd;clip-rule:evenodd;}</style><g><path class="st0" d="M7.15,0h80.73c3.93,0,7.15,3.22,7.15,7.15v8.92l27.85-9.95v45.99l-27.85-9.4v13c0,3.93-3.22,7.14-7.15,7.14 H7.15C3.22,62.85,0,59.64,0,55.71V7.15C0,3.22,3.22,0,7.15,0L7.15,0z M26.21,16.01v24.68h4.83v6.16H18.18V16.01H26.21L26.21,16.01z M41.38,16.01v30.84h-8.03V16.01H41.38L41.38,16.01z M63.95,16.01l-4.06,30.84H47.75L43.1,16.01h8.46 c0.95,8.5,1.65,15.7,2.09,21.58c0.43-5.95,0.87-11.22,1.32-15.83l0.53-5.75H63.95L63.95,16.01z M65.68,16.01h13.37v6.16h-5.34v5.89 h4.99v5.85h-4.99v6.78h5.89v6.16H65.68V16.01L65.68,16.01z"/></g></svg>